<svg xmlns="http://www.w3.org/2000/svg" width="250" height="250" fill="none" viewBox="0 0 250 250">
<!-- SVG created with Arrow, by QuiverAI (https://quiver.ai) -->
  <path d="m232.6 57.06-10.65 7.52-20.2-19.39-4.78 4.54 16.95 17.36c-5.22 1.88-10.13 2.58-13.54 2.92l-12-11.38-3.91 4.78 6.63 6.98c-7.15 0.39-14.12 0.3-18.08 0.2-0.35-7.35-0.62-13.74-0.4-18.79l9.13 9.65 4.54-4.54-13.4-13.4c0.55-7.25 1.71-12.08 2.65-15.12l18.23 18.23 4.18-4.18-19.09-21.38 4.82-8.94-4.83-4.83-8.71 8.55c-15.99 15.99-19.39 26.05-18.32 48.08l0.39 7.09-37.68 1.07-0.05-0.06-0.01 0.08-0.26 0.01 0.48-25.9 42.05-34.21h-17.77c-14.85 0-26.9 4.11-34.92 12.87l-12.68 17.57-1.79 52.45-16.31 18.44c-1.22 10.88-0.15 25.86 1.1 44.39-5.15 0.24-13.69 0.03-23.25 1.32-18.45 2.71-29.05 12.89-39.14 28.86l5.21 4.82c3.48-3.34 6.55-5.6 9.68-7.13l20.28 19.02 4.18-4.54-17.75-17.11c5.59-2.11 11.13-2.84 15.14-3.22l12.06 11.43 4.54-4.18-8.25-8.25c7.17-0.38 13.86-0.3 18.5-0.2 0.26 4.42 0.52 9.45 0.67 14.01 0.04 1.4 0.05 2.73 0.04 4.01l-9.09-6.92-3.52 4.54 11.96 12.44c-0.55 6.54-1.7 10.93-2.61 13.74l-17.84-17.29-4.18 4.54 19.09 19.71-5.24 11.3 4.32 4.47 9.52-9.28c15.06-14.19 18.8-26.94 17.39-47.64v-0.04l-0.01-0.07-0.09-8.13 19.89-0.17 24.15-2.15 15.05-16.39 53.63-9.03 14.18-15.97c11.06-11.82 11.06-27.24 9.99-40.9v-0.09l-0.01-0.09-0.12-10.58-32.07 44.78-24.98 3.34c0.38-7.32-0.27-20.45-1.12-38.23 3.36 0.09 8.95 0.16 15.21-0.52 15.98-1.47 26.4-5.57 47.29-29.59l-4.47-5.28zm-84.92 20.75 4.97-0.15 0.42 8.04-28.92 1.21 8.27-8.96 15.26-0.14zm-24.93 0.73-5.68 7.56-2.09-0.13-0.3-6.55 8.07-0.88zm-25.61-32.47 11.54-2.56-0.58 30.13-12.68 14.96 1.72-42.53zm-4.89 148c0 13.99-6.02 24.41-12.18 31.97 6.28-14.96 5.07-35.05 2.92-60.57-1.72-19.31-3.02-34.14-3.96-42.54l8.04 9.78c0 11.54 0.94 24.09 2.24 38.08 1.07 10.69 2.4 18.11 2.94 23.28zm-9.61-75.83 6.4 0.42-0.67 5.67-5.73-6.09zm10.07-6.07h-10.42l26.92-28.93-0.14 9.78-16.36 19.15zm1.93 17.96c-0.35-6.66 0.73-12.02 2.88-14.03l17.57 16.74 4.18-4.54-16.89-18.03 7.56-8.21 16.74 16.74 4.18-4.54-16.11-16.95c2.92-2.92 7.25-3.34 11.86-3.63l13.76 11.38 3.84-4.25-9.13-9.13 18.8 0.42 0.81 19.31-7.9-7.12-3.7 4.4 11.38 11.38c0 6.66-1.07 10.81-3.22 12.82l-16.74-15.5-4.54 4.57 16.74 16.74-8.21 8.69-16.36-16.36-4.19 4.54 15.64 16.74c-2.92 2.92-7.53 3.86-12.9 3.86l-11.38-11.38-4.54 4.97 8.7 8.21h-18.8l-0.82-19.04 8.94 7.9 3.7-4.04-11.85-12.66zm20.45 42.04-19.41-0.06-0.54-7.56 28.53-0.88-8.58 8.5zm9.91-1.01 7.7-8.22v7.29l-7.7 0.93zm15.02-4.93v-10.06l20.45-22.41 0.3-8.45 7.8 9.92-28.55 31zm87.05-65.07c0 13.26-3.97 24.15-10.89 31.95l-6.03 6.59 1.92-13.58-3.6 0.45 18.6-25.41zm-23.7 44.11-41.29 6.79 13-14.39 30-4.96-1.71 12.56zm-33.23-19.08-10.89-12.81-0.78-49.68c-1.07-16.49 0.78-27.55 11.67-40.35-7.76 19.61-4.09 42.02-1.94 70.57 1.42 15.29 2.49 25.35 1.94 32.27zm3.76-40.44-0.54-7.79h11.23c11.06 0 23.28-1.48 36.08-7.25-9.92 11.45-18.24 15.04-46.77 15.04zm-71.17-47.86c10.42-12.8 19.34-19.03 35.84-19.71l-24.1 19.71-0.41-2.56-11.33 2.56zm-28.19 133.7-14.39-0.43c-13.07 0-22.78 2.01-32.47 7.37 8.03-8.3 15.49-13.06 30.01-13.47l16.85-0.51v7.04z" fill="url(#paint0_linear_32_1150)"/>
  <defs>
    <linearGradient id="paint0_linear_32_1150" x1="57.65" x2="170.5" y1="234" y2="11.95" gradientUnits="userSpaceOnUse">
      <stop stop-color="#1A4882" offset="0"/>
      <stop stop-color="#23B3A8" offset="1"/>
    </linearGradient>
  </defs>
</svg>